<svg width="82" height="96" viewBox="0 0 82 96" fill="none" xmlns="http://www.w3.org/2000/svg">
<rect y="8" width="81.3795" height="79" rx="10" fill="#0B3B49"/>
<path d="M26.7473 40.2H54.9873C55.574 40.2 56.0807 40.4133 56.5073 40.84C56.934 41.2667 57.1473 41.7733 57.1473 42.36V53.72C57.1473 54.3067 56.934 54.8133 56.5073 55.24C56.0807 55.6667 55.574 55.88 54.9873 55.88H26.7473C26.1607 55.88 25.654 55.6667 25.2273 55.24C24.8007 54.8133 24.5873 54.3067 24.5873 53.72V42.36C24.5873 41.7733 24.8007 41.2667 25.2273 40.84C25.654 40.4133 26.1607 40.2 26.7473 40.2Z" fill="white"/>
</svg>
